<svg t="1709691568110" class="icon" viewBox="0 0 1024 1024" version="1.1" xmlns="http://www.w3.org/2000/svg" p-id="1467" width="40" height="40"><path d="M532.48 515.807179c0 9.334154-7.53559 16.909128-16.804103 16.909129-9.281641 0-16.804103-7.574974-16.804102-16.922257S506.394256 498.871795 515.675897 498.871795c9.268513 0 16.804103 7.574974 16.804103 16.935384z" fill="#333333" p-id="1468"></path><path d="M325.513846 654.19159c-2.271179 3.72841-5.513846 6.734769-9.386667 8.717128l-58.985025 30.076718a23.276308 23.276308 0 0 1-31.507692-10.660103 23.958974 23.958974 0 0 1 10.463179-31.862154l53.090462-27.070358 70.262153-114.661744c3.544615-5.77641 9.347282-9.741128 15.95077-10.883282a23.18441 23.18441 0 0 1 18.642051 4.909949l39.844102 32.505435c2.848821-18.471385 7.076103-38.898872 12.353642-59.707076l-40.487385-114.793026-105.852718-26.978462c-12.550564-3.203282-20.151795-16.121436-17.027282-28.829538a23.420718 23.420718 0 0 1 28.44882-17.329231L429.292308 317.702564a23.578256 23.578256 0 0 1 16.357743 15.058051l24.050872 68.17477c10.148103-26.427077 21.490872-49.585231 34.054564-68.135385a69.500718 69.500718 0 0 1 8.073846-40.342974l-76.931282-96.11159a24.024615 24.024615 0 0 1 3.321436-33.411282 23.197538 23.197538 0 0 1 33.056821 3.387077l75.959795 94.916923a66.218667 66.218667 0 0 1 47.655384 0l75.972923-94.916923a23.197538 23.197538 0 0 1 33.043693-3.387077c9.977436 8.310154 11.460923 23.236923 3.334564 33.411282l-76.931282 96.11159a69.500718 69.500718 0 0 1 8.060718 40.356102c12.563692 18.537026 23.893333 41.682051 34.041435 68.096l24.064-68.148513c2.625641-7.456821 8.756513-13.101949 16.357744-15.058051l117.98318-30.076718c12.603077-3.21641 25.324308 4.581744 28.44882 17.329231 3.111385 12.708103-4.46359 25.626256-17.027282 28.829538l-105.852718 26.978462-40.500513 114.740513c5.277538 20.834462 9.504821 41.275077 12.366769 59.759589l39.857231-32.505435a23.171282 23.171282 0 0 1 18.628923-4.909949c6.603487 1.142154 12.406154 5.106872 15.95077 10.883282l70.249025 114.661744 53.10359 27.070358a23.972103 23.972103 0 0 1 10.463179 31.875283 23.276308 23.276308 0 0 1-31.507692 10.646974l-58.998154-30.076718a23.499487 23.499487 0 0 1-9.373538-8.704l-59.772718-97.542564-44.504616 36.312615a625.965949 625.965949 0 0 1-4.227282 63.094154l50.018462 24.28718a23.814564 23.814564 0 0 1 13.338256 21.451487v219.634872c0 13.115077-10.476308 23.788308-23.433846 23.788307-12.970667 0-23.446974-10.673231-23.446974-23.801436V716.813128l-24.484103-11.881025c-22.068513 104.671179-70.472205 171.099897-129.050256 171.099897s-106.968615-66.428718-129.050257-171.099897l-24.484102 11.881025v204.616205c0 13.128205-10.476308 23.801436-23.433846 23.801436-12.970667 0-23.446974-10.673231-23.446975-23.801436V701.80759c0-9.150359 5.172513-17.513026 13.338257-21.464616l50.018461-24.260923a626.097231 626.097231 0 0 1-4.24041-63.107282l-44.504615-36.299487-59.75959 97.516308z m-37.612308-28.711385l3.478975-3.203282-2.19241 1.115898-1.286565 2.100512z" fill="#FFD698" p-id="1469"></path><path d="M167.949128 657.959385l65.076513-32.820513c2.678154-1.352205 4.936205-3.413333 6.51159-5.973334l71.653743-115.659487 61.046154 49.257026c0.301949 26.952205 2.126769 53.471179 5.513846 79.071179l-61.387487 29.459693a16.410256 16.410256 0 0 0-9.268513 14.808615v239.589744c0 9.058462 7.273026 16.410256 16.265847 16.410256 8.979692 0 16.265846-7.351795 16.265846-16.410256V686.473846l43.546256-20.900102C405.425231 782.375385 457.452308 856.615385 518.564103 856.615385s113.138872-74.253128 135.378051-191.05477l43.559384 20.913231v229.218462c0 9.058462 7.286154 16.410256 16.278975 16.410256 8.966564 0 16.265846-7.351795 16.265846-16.410256V676.102564a16.410256 16.410256 0 0 0-9.281641-14.808615l-61.387487-29.485949c3.373949-25.6 5.211897-52.105846 5.513846-79.044923l61.046154-49.257026 71.640615 115.659487c1.575385 2.56 3.846564 4.621128 6.524718 5.973334l65.063385 32.820513c8.060718 4.069744 17.814974 0.748308 21.832205-7.338667a16.475897 16.475897 0 0 0-7.273026-22.016L822.744615 597.858462l-78.900512-127.382975a16.160821 16.160821 0 0 0-23.958975-4.109128l-57.147077 46.119385c-2.940718-24.379077-8.664615-53.576205-16.515282-83.705436l47.392821-132.726154 121.698461-30.693744a16.423385 16.423385 0 0 0 11.841641-19.902359 16.252718 16.252718 0 0 0-19.718564-11.946666l-130.139897 32.820512c-5.26441 1.339077-9.531077 5.225026-11.369026 10.371282l-35.485538 99.40677c-11.382154-33.385026-27.306667-71.548718-47.602872-100.128821a65.719795 65.719795 0 0 0-10.620718-47.209025l89.088-110.093129a16.515282 16.515282 0 0 0-2.310564-23.079384 16.173949 16.173949 0 0 0-22.89559 2.323692l-88.405333 109.252923a64.301949 64.301949 0 0 0-58.262975 0l-88.405333-109.252923a16.173949 16.173949 0 0 0-22.89559-2.323692 16.502154 16.502154 0 0 0-2.310564 23.079384l89.088 110.093129a65.641026 65.641026 0 0 0-10.620718 47.209025c-20.309333 28.606359-36.233846 66.770051-47.616 100.168205l-35.485538-99.446154a16.331487 16.331487 0 0 0-11.355898-10.371282l-130.139897-32.820512a16.265846 16.265846 0 0 0-19.718564 11.946666 16.410256 16.410256 0 0 0 11.828513 19.902359l121.711589 30.693744 47.366564 132.778667c-7.837538 30.102974-13.548308 59.300103-16.489025 83.652923l-57.147077-46.119385a16.160821 16.160821 0 0 0-23.945846 4.109128L214.38359 597.858462l-60.980513 30.746256a16.475897 16.475897 0 0 0-7.273026 22.016c4.017231 8.113231 13.784615 11.395282 21.819077 7.351795zM518.564103 331.487179c18.405744 0 35.577436-7.995077 47.642256-21.044512 16.042667 27.542974 31.481436 66.061128 44.110769 110.381948A176.574359 176.574359 0 0 1 518.564103 446.358974c-32.610462 0-64.091897-8.795897-91.766154-25.534359 12.629333-44.320821 28.081231-82.838974 44.110769-110.381948a65.089641 65.089641 0 0 0 47.655385 21.044512z m16.278974 489.18318V643.282051c0-9.058462-7.299282-16.410256-16.278974-16.410256-8.979692 0-16.278974 7.351795-16.278975 16.410256v177.388308c-19.705436-7.574974-35.511795-27.634872-46.106256-45.042872-38.413128-63.133538-51.488821-156.960821-51.488821-230.806974 0-21.504 5.067487-55.164718 13.561436-91.136a208.541538 208.541538 0 0 0 84.046769 24.877949V512c0 9.058462 7.286154 16.410256 16.265847 16.410256s16.278974-7.351795 16.278974-16.410256v-33.437538a208.423385 208.423385 0 0 0 84.020513-24.877949c8.493949 35.958154 13.574564 69.605744 13.574564 91.136 0 140.524308-44.937846 255.606154-97.608205 275.849846z m16.252718-554.824205c0 18.300718-14.861128 32.820513-32.531692 32.820513a32.768 32.768 0 0 1-32.531693-32.820513c0-18.090667 14.585436-32.820513 32.531693-32.820513 17.933128 0 32.531692 14.729846 32.531692 32.820513z" fill="#333333" p-id="1470"></path></svg>